<svg width="49" height="49" viewBox="0 0 49 49" fill="none" xmlns="http://www.w3.org/2000/svg">
<path d="M32.3431 24.7236C35.3592 26.1473 37.931 28.3652 39.7826 31.1394C41.6342 33.9135 42.6958 37.1393 42.8536 40.4709C42.8746 40.7761 42.8344 41.0824 42.7355 41.3718C42.6365 41.6613 42.4807 41.928 42.2773 42.1565C42.0738 42.3849 41.8268 42.5704 41.5507 42.702C41.2745 42.8337 40.9749 42.9088 40.6693 42.9231C40.3638 42.9374 40.0584 42.8905 39.7713 42.7852C39.4841 42.6798 39.2208 42.5182 38.9969 42.3098C38.7731 42.1013 38.5931 41.8502 38.4675 41.5713C38.342 41.2923 38.2735 40.9911 38.2659 40.6853C38.099 37.1467 36.5758 33.8082 34.0124 31.363C31.4491 28.9177 28.0426 27.5535 24.5 27.5535C20.9574 27.5535 17.5509 28.9177 14.9876 31.363C12.4243 33.8082 10.901 37.1467 10.7341 40.6853C10.6928 41.2843 10.4187 41.8433 9.97035 42.2426C9.52202 42.642 8.93515 42.8499 8.33541 42.8218C7.73568 42.7938 7.17076 42.5321 6.76162 42.0927C6.35249 41.6533 6.13167 41.0711 6.14645 40.4709C6.30395 37.1397 7.3651 33.9141 9.21614 31.1399C11.0672 28.3658 13.6383 26.1478 16.6539 24.7236C14.7215 23.1117 13.3325 20.9438 12.6759 18.5146C12.0192 16.0854 12.1268 13.5129 12.984 11.147C13.8412 8.78109 15.4063 6.73668 17.4666 5.29183C19.5268 3.84698 21.9821 3.07184 24.4985 3.07184C27.0149 3.07184 29.4702 3.84698 31.5304 5.29183C33.5906 6.73668 35.1558 8.78109 36.013 11.147C36.8702 13.5129 36.9777 16.0854 36.3211 18.5146C35.6645 20.9438 34.2755 23.1117 32.3431 24.7236ZM32.1563 15.3125C32.1563 13.2819 31.3496 11.3345 29.9138 9.8987C28.478 8.46288 26.5306 7.65624 24.5 7.65624C22.4694 7.65624 20.5221 8.46288 19.0862 9.8987C17.6504 11.3345 16.8438 13.2819 16.8438 15.3125C16.8438 17.3431 17.6504 19.2905 19.0862 20.7263C20.5221 22.1621 22.4694 22.9687 24.5 22.9687C26.5306 22.9687 28.478 22.1621 29.9138 20.7263C31.3496 19.2905 32.1563 17.3431 32.1563 15.3125Z" fill="#DBF24B"/>
</svg>
