<svg width="39" height="45" viewBox="0 0 39 45" fill="none" xmlns="http://www.w3.org/2000/svg">
<path d="M11.3333 6.16665V2.08331M27.6666 6.16665V2.08331M19.4999 42.9166C11.319 42.9166 7.2295 42.9166 4.68763 40.2257C2.14575 37.5348 2.14575 33.2024 2.14575 24.5416C2.14575 15.8809 2.14575 11.5485 4.68763 8.85756C7.2295 6.16665 11.319 6.16665 19.4999 6.16665C27.6809 6.16665 31.7703 6.16665 34.3122 8.85756C36.8541 11.5485 36.8541 15.8809 36.8541 24.5416C36.8541 33.2024 36.8541 37.5348 34.3122 40.2257C31.7703 42.9166 27.6809 42.9166 19.4999 42.9166Z" stroke="#DBF24B" stroke-width="4" stroke-linecap="round" stroke-linejoin="round"/>
<path d="M23.6199 17.3816C23.6199 18.4645 23.1897 19.5031 22.4239 20.2689C21.6581 21.0347 20.6195 21.4649 19.5366 21.4649C18.4536 21.4649 17.415 21.0347 16.6492 20.2689C15.8834 19.5031 15.4532 18.4645 15.4532 17.3816C15.4532 16.2986 15.8834 15.26 16.6492 14.4942C17.415 13.7284 18.4536 13.2982 19.5366 13.2982C20.6195 13.2982 21.6581 13.7284 22.4239 14.4942C23.1897 15.26 23.6199 16.2986 23.6199 17.3816ZM11.4618 32.1285C13.6219 28.8006 17.0539 27.5552 19.5366 27.5572C22.0192 27.5593 25.3512 28.8026 27.5113 32.1305C27.6501 32.3449 27.6889 32.6083 27.5624 32.8329C27.0581 33.7292 25.488 35.5075 24.3569 35.6279C23.0543 35.7647 19.6468 35.7851 19.5386 35.7851C19.4304 35.7851 15.9208 35.7647 14.6182 35.6279C13.483 35.5054 11.915 33.7292 11.4087 32.8308C11.2841 32.6083 11.3229 32.3449 11.4618 32.1285Z" stroke="#DBF24B" stroke-width="3" stroke-linecap="round" stroke-linejoin="round"/>
</svg>
