<svg width="41" height="41" viewBox="0 0 41 41" fill="none" xmlns="http://www.w3.org/2000/svg">
<path d="M20.5 0.083374C31.7761 0.083374 40.9166 9.22392 40.9166 20.5C40.9166 31.7762 31.7761 40.9167 20.5 40.9167C9.22385 40.9167 0.083313 31.7762 0.083313 20.5C0.083313 9.22392 9.22385 0.083374 20.5 0.083374ZM20.5 4.16671C16.1681 4.16671 12.0137 5.88754 8.95057 8.95063C5.88747 12.0137 4.16665 16.1682 4.16665 20.5C4.16665 24.8319 5.88747 28.9864 8.95057 32.0494C12.0137 35.1125 16.1681 36.8334 20.5 36.8334C24.8318 36.8334 28.9863 35.1125 32.0494 32.0494C35.1125 28.9864 36.8333 24.8319 36.8333 20.5C36.8333 16.1682 35.1125 12.0137 32.0494 8.95063C28.9863 5.88754 24.8318 4.16671 20.5 4.16671ZM20.5 8.25004C21.0001 8.25011 21.4827 8.4337 21.8564 8.766C22.2301 9.0983 22.4688 9.55619 22.5274 10.0528L22.5416 10.2917V19.6548L28.0684 25.1816C28.4346 25.549 28.6472 26.042 28.663 26.5605C28.6789 27.079 28.4967 27.584 28.1537 27.9731C27.8106 28.3622 27.3323 28.6061 26.8159 28.6553C26.2995 28.7045 25.7838 28.5553 25.3734 28.238L25.1815 28.0685L19.0565 21.9435C18.7392 21.6259 18.5354 21.2126 18.4767 20.7675L18.4583 20.5V10.2917C18.4583 9.75022 18.6734 9.23092 19.0563 8.84803C19.4392 8.46514 19.9585 8.25004 20.5 8.25004Z" fill="#DBF24B"/>
</svg>
