<svg width="49" height="49" viewBox="0 0 49 49" fill="none" xmlns="http://www.w3.org/2000/svg">
<path d="M46.1768 5.26367C46.5915 5.98145 46.9663 6.66732 47.3013 7.32129C47.6362 7.97526 47.9393 8.63721 48.2104 9.30713C48.4816 9.97705 48.673 10.6709 48.7847 11.3887C48.8963 12.1064 48.9681 12.904 49 13.7812C49 15.0413 48.8405 16.2536 48.5215 17.418C48.2025 18.5824 47.7399 19.6829 47.1338 20.7197C46.5277 21.7565 45.8019 22.6896 44.9565 23.519C44.1112 24.3485 43.1781 25.0662 42.1572 25.6724C41.1364 26.2785 40.0438 26.741 38.8794 27.0601C37.715 27.3791 36.4948 27.5465 35.2188 27.5625C34.8519 27.5625 34.485 27.5465 34.1182 27.5146C33.7513 27.4827 33.3765 27.4349 32.9937 27.3711L13.7095 46.6553C12.9438 47.4209 12.0745 48.0031 11.1016 48.4019C10.1286 48.8006 9.09977 49 8.01514 49C6.91455 49 5.87777 48.7926 4.90479 48.3779C3.9318 47.9632 3.08643 47.389 2.36865 46.6553C1.65088 45.9215 1.07666 45.0682 0.645996 44.0952C0.215332 43.1222 0 42.0854 0 40.9849C0 39.9162 0.199382 38.8953 0.598145 37.9224C0.996908 36.9494 1.5791 36.0721 2.34473 35.2905L21.6289 16.0063C21.5651 15.6395 21.5173 15.2726 21.4854 14.9058C21.4535 14.5389 21.4375 14.1641 21.4375 13.7812C21.4375 12.5212 21.597 11.3089 21.916 10.1445C22.235 8.98014 22.6976 7.87956 23.3037 6.84277C23.9098 5.80599 24.6356 4.87288 25.481 4.04346C26.3263 3.21403 27.2594 2.49626 28.2803 1.89014C29.3011 1.28402 30.3937 0.821452 31.5581 0.502441C32.7225 0.183431 33.9427 0.0159505 35.2188 0C36.0801 0 36.8696 0.0638021 37.5874 0.191406C38.3052 0.31901 39.007 0.518392 39.6929 0.789551C40.3787 1.06071 41.0407 1.35579 41.6787 1.6748C42.3167 1.99382 43.0026 2.37663 43.7363 2.82324L34.3096 12.25L36.75 14.6904L46.1768 5.26367ZM35.2188 24.5C36.7021 24.5 38.0898 24.2209 39.3818 23.6626C40.6738 23.1043 41.8063 22.3387 42.7793 21.3657C43.7523 20.3927 44.5179 19.2603 45.0762 17.9683C45.6344 16.6763 45.9215 15.2806 45.9375 13.7812C45.9375 12.6169 45.7461 11.4924 45.3633 10.4077L36.75 18.9971L30.0029 12.25L38.5923 3.63672C37.5076 3.25391 36.3831 3.0625 35.2188 3.0625C33.7354 3.0625 32.3477 3.34163 31.0557 3.8999C29.7637 4.45817 28.6312 5.2238 27.6582 6.19678C26.6852 7.16976 25.9196 8.30225 25.3613 9.59424C24.8031 10.8862 24.516 12.2819 24.5 13.7812C24.5 14.3395 24.5479 14.8818 24.6436 15.4082C24.7393 15.9346 24.8509 16.4609 24.9785 16.9873L4.52197 37.4678C4.05941 37.9303 3.70052 38.4647 3.44531 39.0708C3.1901 39.6769 3.0625 40.3149 3.0625 40.9849C3.0625 41.6548 3.1901 42.2928 3.44531 42.8989C3.70052 43.505 4.05941 44.0314 4.52197 44.478C4.98454 44.9246 5.5109 45.2756 6.10107 45.5308C6.69124 45.786 7.32926 45.9215 8.01514 45.9375C8.68506 45.9375 9.32308 45.8099 9.9292 45.5547C10.5353 45.2995 11.0697 44.9406 11.5322 44.478L32.0127 24.0215C32.5391 24.1491 33.0654 24.2607 33.5918 24.3564C34.1182 24.4521 34.6605 24.5 35.2188 24.5Z" fill="#DBF24B"/>
</svg>
